<svg xmlns="http://www.w3.org/2000/svg" width="16" height="16"><path style="fill-rule:evenodd;fill:#7fbcfc;fill-opacity:1;stroke-width:1;stroke-linecap:butt;stroke-linejoin:miter;stroke:#7fbcfc;stroke-opacity:1;stroke-miterlimit:4" d="M30.875 2.425a1.386 1.386 0 0 0-1.003-.445c-.38 0-.749.166-1.003.445l-1.993 1.79a1.28 1.28 0 0 0-.457.977c0 .369.165.724.457.965L30.24 9.42a.882.882 0 0 1 .267 1.016.883.883 0 0 1-.876.558H11.375a1.54 1.54 0 0 0-1.46 1.384v2.78c.05.775.686 1.384 1.46 1.384h18.256a.883.883 0 0 1 .774.52.899.899 0 0 1-.114.94l-3.377 3.263c-.28.24-.444.596-.444.964 0 .369.165.724.444.965l2.006 1.943c.254.279.622.431 1.003.431.38 0 .736-.152 1.003-.431L41.69 14.739c.28-.241.432-.596.432-.965 0-.38-.152-.723-.432-.977zm-9.75 24.413c.254-.267.622-.432.99-.432.381 0 .75.165 1.003.432l2.006 1.803c.267.24.432.596.432.964 0 .381-.165.724-.432.978l-3.377 3.263a.855.855 0 0 0-.216.99.883.883 0 0 0 .876.533h18.205c.762.026 1.384.622 1.473 1.384v2.78a1.483 1.483 0 0 1-1.473 1.384H22.37a.905.905 0 0 0-.85.533.916.916 0 0 0 .19.99l3.377 3.263c.267.241.432.597.432.965s-.165.724-.432.978l-2.006 1.93c-.267.278-.622.43-1.003.43-.38 0-.736-.152-1.003-.43L10.36 39.177a1.283 1.283 0 0 1-.444-.965c0-.381.165-.724.444-.978zm0 0" transform="scale(.30769)"/></svg>