<svg xmlns="http://www.w3.org/2000/svg" width="16" height="16"><path style="fill:none;stroke-width:2;stroke-linecap:butt;stroke-linejoin:miter;stroke:#fcbe7f;stroke-opacity:1;stroke-miterlimit:4" d="M20.997 12A8.999 8.999 0 0 1 12 20.997 8.999 8.999 0 0 1 3.003 12 8.999 8.999 0 0 1 12 3.003 8.999 8.999 0 0 1 20.997 12zm0 0" transform="matrix(.59524 0 0 .59524 .857 .857)"/><path style="stroke:none;fill-rule:nonzero;fill:#fcbe7f;fill-opacity:1" d="M11.79 4.21A5.357 5.357 0 0 0 8 2.646 5.357 5.357 0 0 0 4.21 4.21 5.357 5.357 0 0 0 2.646 8c0 1.422.562 2.785 1.566 3.79zm0 0"/></svg>