<svg xmlns="http://www.w3.org/2000/svg" width="16" height="16"><path style="stroke:none;fill-rule:evenodd;fill:#fcbe7f;fill-opacity:1" d="M7.996 0c.309 0 .559.25.559.559v1.488c0 .308-.25.555-.559.555a.555.555 0 0 1-.559-.555V.559c0-.309.25-.559.56-.559zM3.141 3.14a.552.552 0 0 1 .785 0l.258.255a.556.556 0 0 1 0 .789.556.556 0 0 1-.79 0l-.253-.258a.552.552 0 0 1 0-.785zm9.714 0a.559.559 0 0 1 0 .786l-.257.258a.556.556 0 0 1-.79 0 .556.556 0 0 1 0-.79l.258-.253a.556.556 0 0 1 .79 0zM0 7.997c0-.309.25-.559.559-.559h1.488c.308 0 .555.25.555.56a.555.555 0 0 1-.555.558H.559A.558.558 0 0 1 0 7.996zm13.39 0c0-.309.25-.559.555-.559h1.489a.558.558 0 1 1 0 1.118h-1.489a.558.558 0 0 1-.554-.559zM4.185 11.81a.556.556 0 0 1 0 .789l-.258.257a.556.556 0 1 1-.785-.79l.254-.256a.556.556 0 0 1 .789 0zm7.625 0a.556.556 0 0 1 .789 0l.257.257a.564.564 0 0 1 0 .79.564.564 0 0 1-.789 0l-.257-.258a.556.556 0 0 1 0-.79zM7.996 13.39c.309 0 .559.25.559.554v1.489a.558.558 0 1 1-1.117 0v-1.489c0-.304.25-.554.558-.554zm0 0"/><path style="stroke:none;fill-rule:nonzero;fill:#fcbe7f;fill-opacity:1" d="M4.277 7.297c0 1.89 1.496 2.898 2.59 3.8.387.317.758.618 1.13.618.37 0 .741-.3 1.128-.617 1.094-.903 2.59-1.91 2.59-3.801 0-1.89-2.047-3.23-3.719-1.414-1.672-1.817-3.719-.477-3.719 1.414zm0 0"/></svg>