<svg xmlns="http://www.w3.org/2000/svg" width="16" height="16" viewBox="0 0 16 15"><path style="stroke:none;fill-rule:nonzero;fill:#fcbe7f;fill-opacity:1" d="m3.016 0-.098.64-.512.297.492.282.075.64.402-.476.555.11-.243-.575.278-.578-.567.117zM5.87 2.18l-.379.632-.66.02.39.586-.007.035c-.235-.094-.465-.18-.695-.258-.227-.078-.45-.148-.665-.215-1.98-.59-3.351-.535-3.722.153-.008.012-.016.023-.024.039-.336.723.422 2.02 2.051 3.496l-.582.148-.64-.71-.118 1.03-.82.5.816.415.137 1.02.629-.782.895.137-.43-.895.312-.687c1.082.949 2.442 1.906 3.903 2.738.511.293 1.031.57 1.55.824l-.289.387.903.031.453.875.258-.707c.851.348 1.656.613 2.375.785l-.246.407-.746.023.445.664-.242.813.707-.301.593.476-.007-.847.609-.512-.707-.223-.125-.433c1.36.285 2.305.176 2.668-.297l.004-.004c0-.004.004-.004.004-.008.004-.004.008-.008.008-.012h.003v-.003l.012-.016c.004-.004.004-.008.008-.012l.012-.023c.004-.004.004-.004.004-.008h.004c.003-.008.007-.02.011-.027h.004v-.004c.004-.012.012-.02.016-.032a.874.874 0 0 0 .066-.25c0-.027.004-.058.004-.09 0-.062 0-.128-.008-.195-.008-.039-.011-.078-.023-.117a1.686 1.686 0 0 0-.055-.21c-.012-.04-.027-.083-.043-.126a3.314 3.314 0 0 0-.113-.246 4.26 4.26 0 0 0-.293-.504l.246-.316.793.097-.39-.777.359-.836-.785.207-.575-.61-.097.907-.418.273c-1.153-1.21-2.887-2.511-4.82-3.613 0-.004-.004-.004-.008-.004a27.387 27.387 0 0 0-2.234-1.137l-.005-.3.543-.457-.62-.2zm6.461 1.68-.727.35-.644-.472.039.89-.621.575.754.195.265.832.426-.773.781-.055-.492-.672zm-8.36-.27c.118.023.235.05.36.082a10.417 10.417 0 0 1 .754.215l-.078.254.367-.157c.125.043.25.094.379.145.125.05.254.101.387.156l.02.016v-.008c.339.144.683.3 1.034.473.348.171.696.355 1.043.55a.104.104 0 0 0 .024.02c.886.508 1.73 1.078 2.457 1.66a11.55 11.55 0 0 1 1.375 1.274c.031.035.058.07.09.105.086.102.168.2.242.297a3.375 3.375 0 0 1 .445.723c.047.109.082.214.102.312.023.102.03.191.023.277a.645.645 0 0 1-.074.274l-.02.035-.004.004c-.007.012-.011.02-.02.031-.003 0-.003.004-.003.004l-.023.027-.004.004a.091.091 0 0 1-.028.028c0 .004-.004.004-.004.007-.007.008-.02.016-.027.024 0 .004-.004.004-.008.008-.008.008-.015.011-.023.02-.004.003-.008.007-.012.007-.008.008-.016.012-.027.02-.004.003-.008.007-.012.007-.008.008-.02.012-.027.016-.473.29-1.446.227-2.715-.164l-.543-.508.09-1.027-.77.57L7.914 9l.121.57a20.58 20.58 0 0 1-1.426-.734A19.052 19.052 0 0 1 3.816 6.91l.336-.18.407.258-.047-.539.37-.37-.476-.095-.183-.5-.235.489-.484.062.32.39-.086.419C2.48 5.762 1.79 4.77 1.855 4.144a.758.758 0 0 1 .051-.21.682.682 0 0 1 .137-.184c.02-.016.043-.031.066-.047.043-.031.09-.062.145-.09.031-.011.066-.027.101-.039a1.278 1.278 0 0 1 .316-.07 1.76 1.76 0 0 1 .212-.02c.054-.004.11-.004.164-.004.082 0 .164.008.254.012.058.004.12.012.183.02.094.011.192.023.293.043.067.011.13.02.196.035zm0 0"/><path style="stroke:none;fill-rule:nonzero;fill:#fc7f7f;fill-opacity:1" d="M10.371 15c-.062-.094-.121-.188-.184-.277l-.128-.184h-.407c-.394-.75-.71-1.488-.836-2.184.676-2.937 1.996-6.105 7.172-6.964l-4.347-.625L9.25 7.965c-1.36-1.938.336-4.086 3.016-5.719l-3.532.883-1.847 4.105C5.289 5.774 5.852 2.86 8.516 1.125l-3.641 1.25c.262 3.676-.477 6.016-1.336 6.18.39.418.875.785 1.469 1.047-2.621.222-3.309-2.977-3.242-4.817-.004-.043-.012-.082-.016-.125L.5 8.352c2.398 1.91 4.633 3.472 4.98 6.187h-.402c.04.168.05.238.094.426.004.012.008.023.008.035zm0 0"/><path style="stroke:none;fill-rule:nonzero;fill:#fcbe7f;fill-opacity:1" d="M14.46 11.547 12.68 10.5c-.473.29-1.446.227-2.715-.164l-.543-.508.09-1.027-.77.57L7.914 9l.121.57a20.58 20.58 0 0 1-1.426-.734A19.052 19.052 0 0 1 3.816 6.91l.336-.18.407.258-.047-.539.37-.37-.476-.095-.16-.437-.043-.024-.215.45-.484.062.32.39-.086.419C2.48 5.762 1.79 4.77 1.855 4.144L.133 3.134c-.008.012-.016.023-.024.039-.336.723.422 2.02 2.051 3.496l-.582.148-.64-.71-.118 1.03-.82.5.816.415.137 1.02.629-.782.895.137-.43-.895.312-.687c1.082.949 2.442 1.906 3.903 2.738.511.293 1.031.57 1.55.824l-.289.387.903.031.453.875.258-.707c.851.348 1.656.613 2.375.785l-.246.407-.746.023.445.664-.242.813.707-.301.593.476-.007-.847.609-.512-.707-.223-.125-.433c1.36.285 2.305.176 2.668-.297zm0 0"/></svg>