<svg xmlns="http://www.w3.org/2000/svg" width="16" height="16"><path style="stroke:none;fill-rule:nonzero;fill:#fcbe7f;fill-opacity:1" d="M14.922.617H14a.472.472 0 0 0-.46.461V3.23c0 .278-.31.461-.493.247-1.445-1.602-3.508-2.43-5.754-2.215a5.96 5.96 0 0 0-2.277.675 6.125 6.125 0 0 0-1.047.649c-.215.152-.246.492-.063.707l.649.644A.457.457 0 0 0 5.137 4c.37-.246.77-.46 1.203-.645.183-.062.398-.125.613-.187 1.938-.367 3.785.402 4.832 1.664.367.43.09.707-.215.707H9.414c-.246 0-.492.215-.492.461v.922c0 .246.246.46.492.46h5.602c.214 0 .367-.183.367-.398V1.078a.472.472 0 0 0-.461-.46zM12.125 11.508a.45.45 0 0 0-.648 0 4.9 4.9 0 0 1-1.786 1.137c-.183.062-.398.125-.613.187-1.941.367-3.785-.402-4.832-1.664-.371-.43-.094-.707.215-.707h2.156c.246 0 .461-.215.461-.461v-.922a.472.472 0 0 0-.46-.46H1.015a.405.405 0 0 0-.399.398v5.906c0 .246.215.46.461.46H2c.246 0 .46-.214.46-.46V12.77c0-.278.31-.461.493-.247 1.418 1.602 3.508 2.43 5.754 2.215a5.96 5.96 0 0 0 2.277-.675 6.78 6.78 0 0 0 1.754-1.262c.184-.184.184-.492 0-.649zm0 0"/></svg>