<svg xmlns="http://www.w3.org/2000/svg" width="16" height="16"><path style="fill:none;stroke-width:2;stroke-linecap:round;stroke-linejoin:round;stroke:#7fbcfc;stroke-opacity:1;stroke-miterlimit:4" d="M18.475 16.705a7.999 7.999 0 0 1-4.67 3.088 8.035 8.035 0 0 1-5.55-.72 8.01 8.01 0 0 1-3.784-9.78 7.993 7.993 0 0 1 3.62-4.272 7.98 7.98 0 0 1 5.532-.855 7.979 7.979 0 0 1 4.734 2.982 8.004 8.004 0 0 1 1.63 5.356m0 0 1.5-1.5m-1.5 1.5-1.5-1.5" transform="scale(.66667)"/><path style="fill:none;stroke-width:2;stroke-linecap:round;stroke-linejoin:round;stroke:#7fbcfc;stroke-opacity:1;stroke-miterlimit:4" d="M12 7.998V12l3 3" transform="scale(.66667)"/></svg>