<svg xmlns="http://www.w3.org/2000/svg" width="16" height="16"><path style="fill:none;stroke-width:2;stroke-linecap:round;stroke-linejoin:round;stroke:#fcbe7f;stroke-opacity:1;stroke-miterlimit:4" d="M7.998 4.002h-.797c-1.119 0-1.681 0-2.11.217-.374.193-.679.498-.872.873-.217.428-.217.99-.217 2.11v.796m0 3v2.004m0 3v.797c0 1.119 0 1.681.217 2.11.193.374.498.679.873.872.428.217.99.217 2.11.217h.796m3 0h2.004m3 0h.797c1.119 0 1.681 0 2.11-.217.374-.193.679-.498.872-.873.217-.428.217-.99.217-2.11v-.796m0-3v-2.004m0-3v-.797c0-1.119 0-1.681-.217-2.11a2.026 2.026 0 0 0-.873-.872c-.428-.217-.99-.217-2.11-.217h-.796m-3 0h-2.004" transform="scale(.66667)"/></svg>