<svg xmlns="http://www.w3.org/2000/svg" width="16" height="16"><path style="stroke:none;fill-rule:nonzero;fill:#7fbcfc;fill-opacity:1" d="M15.383.984c0-.308-.184-.367-.274-.367H8.74c-.462 0-.462.461-.462.461v.89c0 .403.246.493.368.493h4.433c.184.031.461.156.461.648v4.184c.031.121.09.398.461.398h.984s.399 0 .399-.46zm0 0"/><path style="stroke:none;fill-rule:nonzero;fill:#7fbcfc;fill-opacity:1" d="M11.54 4.832c.03-.309-.185-.371-.278-.371H4.89c-.461 0-.461.46-.461.46v.895c0 .399.246.493.37.493h4.43c.184.03.461.152.461.644v4.184c.032.125.094.402.461.402h.985s.402 0 .402-.46zm0 0"/><path style="stroke:none;fill-rule:nonzero;fill:#7fbcfc;fill-opacity:1" d="M1.629 15.016c.062.062.308.246.648-.094l3.2-3.2c.093-.093.37-.308.37.126v3.136c.028.125.09.399.462.399h.984s.398 0 .398-.461V8.676c0-.305-.183-.336-.277-.367H1.047c-.461 0-.461.46-.461.46v.891c0 .402.246.492.367.492h2.953c.125 0 .492.032.156.371L.985 13.66s-.367.34-.062.649zm0 0"/></svg>